<svg xmlns="http://www.w3.org/2000/svg" xmlns:xlink="http://www.w3.org/1999/xlink" width="500" zoomAndPan="magnify" viewBox="0 0 375 374.999991" height="500" preserveAspectRatio="xMidYMid meet" version="1.0"><defs><g/><clipPath id="cbf3160880"><path d="M 12 122 L 165.492188 122 L 165.492188 268.992188 L 12 268.992188 Z M 12 122 " clip-rule="nonzero"/></clipPath><clipPath id="f446bb1cf6"><path d="M 50 84.492188 L 128 84.492188 L 128 154 L 50 154 Z M 50 84.492188 " clip-rule="nonzero"/></clipPath><clipPath id="5cd1e407a3"><path d="M 88 167 L 190 167 L 190 291 L 88 291 Z M 88 167 " clip-rule="nonzero"/></clipPath><clipPath id="89de4d360e"><path d="M 88.667969 181.75 L 171.160156 167.472656 L 189.984375 276.230469 L 107.488281 290.503906 Z M 88.667969 181.75 " clip-rule="nonzero"/></clipPath><clipPath id="088f71ee2b"><path d="M 0.558594 0.28125 L 102 0.28125 L 102 123.640625 L 0.558594 123.640625 Z M 0.558594 0.28125 " clip-rule="nonzero"/></clipPath><clipPath id="60946dc3cd"><path d="M 0.667969 14.75 L 83.160156 0.472656 L 101.984375 109.230469 L 19.488281 123.503906 Z M 0.667969 14.75 " clip-rule="nonzero"/></clipPath><clipPath id="bd9f607e78"><rect x="0" width="102" y="0" height="124"/></clipPath><clipPath id="a1e7122dd5"><path d="M 76 183 L 186 183 L 186 279 L 76 279 Z M 76 183 " clip-rule="nonzero"/></clipPath><clipPath id="3a672c3edb"><path d="M 71.5 216.335938 L 162.8125 179.230469 L 190.027344 246.210938 L 98.714844 283.316406 Z M 71.5 216.335938 " clip-rule="nonzero"/></clipPath><clipPath id="96848a2342"><path d="M 85.394531 210.6875 L 148.871094 184.894531 C 152.554688 183.398438 156.683594 183.425781 160.351562 184.972656 C 164.015625 186.519531 166.914062 189.460938 168.414062 193.144531 L 184.335938 232.332031 C 185.832031 236.019531 185.804688 240.148438 184.257812 243.8125 C 182.710938 247.476562 179.773438 250.378906 176.085938 251.875 L 112.609375 277.667969 C 108.925781 279.164062 104.796875 279.136719 101.128906 277.589844 C 97.464844 276.042969 94.566406 273.105469 93.066406 269.417969 L 77.144531 230.230469 C 75.648438 226.546875 75.675781 222.417969 77.222656 218.75 C 78.769531 215.085938 81.710938 212.1875 85.394531 210.6875 Z M 85.394531 210.6875 " clip-rule="nonzero"/></clipPath><clipPath id="cf53fb524d"><path d="M 0 0.359375 L 110 0.359375 L 110 96 L 0 96 Z M 0 0.359375 " clip-rule="nonzero"/></clipPath><clipPath id="79b5a4dd19"><path d="M -4.5 33.335938 L 86.8125 -3.769531 L 114.027344 63.210938 L 22.714844 100.316406 Z M -4.5 33.335938 " clip-rule="nonzero"/></clipPath><clipPath id="bbd1c19afd"><path d="M 9.394531 27.6875 L 72.871094 1.894531 C 76.554688 0.398438 80.683594 0.425781 84.351562 1.972656 C 88.015625 3.519531 90.914062 6.460938 92.414062 10.144531 L 108.335938 49.332031 C 109.832031 53.019531 109.804688 57.148438 108.257812 60.8125 C 106.710938 64.476562 103.773438 67.378906 100.085938 68.875 L 36.609375 94.667969 C 32.925781 96.164062 28.796875 96.136719 25.128906 94.589844 C 21.464844 93.042969 18.566406 90.105469 17.066406 86.417969 L 1.144531 47.230469 C -0.351562 43.546875 -0.324219 39.417969 1.222656 35.75 C 2.769531 32.085938 5.710938 29.1875 9.394531 27.6875 Z M 9.394531 27.6875 " clip-rule="nonzero"/></clipPath><clipPath id="f2c674a4e3"><rect x="0" width="110" y="0" height="96"/></clipPath><clipPath id="25329111c4"><path d="M 176.511719 150.910156 L 228.207031 150.910156 L 228.207031 202.601562 L 176.511719 202.601562 Z M 176.511719 150.910156 " clip-rule="nonzero"/></clipPath><clipPath id="96f81717c9"><path d="M 202.359375 150.910156 C 188.085938 150.910156 176.511719 162.480469 176.511719 176.753906 C 176.511719 191.03125 188.085938 202.601562 202.359375 202.601562 C 216.632812 202.601562 228.207031 191.03125 228.207031 176.753906 C 228.207031 162.480469 216.632812 150.910156 202.359375 150.910156 Z M 202.359375 150.910156 " clip-rule="nonzero"/></clipPath><clipPath id="1d0f41097f"><path d="M 0.511719 0.910156 L 52.207031 0.910156 L 52.207031 52.601562 L 0.511719 52.601562 Z M 0.511719 0.910156 " clip-rule="nonzero"/></clipPath><clipPath id="9f78166a52"><path d="M 26.359375 0.910156 C 12.085938 0.910156 0.511719 12.480469 0.511719 26.753906 C 0.511719 41.03125 12.085938 52.601562 26.359375 52.601562 C 40.632812 52.601562 52.207031 41.03125 52.207031 26.753906 C 52.207031 12.480469 40.632812 0.910156 26.359375 0.910156 Z M 26.359375 0.910156 " clip-rule="nonzero"/></clipPath><clipPath id="7e7db0c3f5"><rect x="0" width="53" y="0" height="53"/></clipPath><clipPath id="99e907485f"><path d="M 190.492188 167.691406 L 214.492188 167.691406 L 214.492188 185.691406 L 190.492188 185.691406 Z M 190.492188 167.691406 " clip-rule="nonzero"/></clipPath><clipPath id="26c5e32a83"><path d="M 54.585938 153.273438 L 363.5 153.273438 L 363.5 254.921875 L 54.585938 254.921875 Z M 54.585938 153.273438 " clip-rule="nonzero"/></clipPath><clipPath id="f0c858cd1b"><path d="M 67.335938 153.273438 L 350.507812 153.273438 C 357.546875 153.273438 363.257812 158.984375 363.257812 166.023438 L 363.257812 242.171875 C 363.257812 249.214844 357.546875 254.921875 350.507812 254.921875 L 67.335938 254.921875 C 60.292969 254.921875 54.585938 249.214844 54.585938 242.171875 L 54.585938 166.023438 C 54.585938 158.984375 60.292969 153.273438 67.335938 153.273438 Z M 67.335938 153.273438 " clip-rule="nonzero"/></clipPath><clipPath id="a2b281c43a"><path d="M 0.585938 0.273438 L 309.359375 0.273438 L 309.359375 101.921875 L 0.585938 101.921875 Z M 0.585938 0.273438 " clip-rule="nonzero"/></clipPath><clipPath id="c8332c3470"><path d="M 13.335938 0.273438 L 296.507812 0.273438 C 303.546875 0.273438 309.257812 5.984375 309.257812 13.023438 L 309.257812 89.171875 C 309.257812 96.214844 303.546875 101.921875 296.507812 101.921875 L 13.335938 101.921875 C 6.292969 101.921875 0.585938 96.214844 0.585938 89.171875 L 0.585938 13.023438 C 0.585938 5.984375 6.292969 0.273438 13.335938 0.273438 Z M 13.335938 0.273438 " clip-rule="nonzero"/></clipPath><clipPath id="6de270c614"><rect x="0" width="310" y="0" height="102"/></clipPath><clipPath id="2ef0251156"><path d="M 40.691406 151.160156 L 139 151.160156 L 139 238.910156 L 40.691406 238.910156 Z M 40.691406 151.160156 " clip-rule="nonzero"/></clipPath><clipPath id="7a62c0478c"><rect x="0" width="230" y="0" height="74"/></clipPath><clipPath id="1efbe32fab"><rect x="0" width="218" y="0" height="70"/></clipPath><clipPath id="e938b22ec0"><path d="M 0.664062 0.78125 L 66.21875 0.78125 L 66.21875 66.335938 L 0.664062 66.335938 Z M 0.664062 0.78125 " clip-rule="nonzero"/></clipPath><clipPath id="3f6f40cdf4"><path d="M 33.441406 0.78125 C 15.339844 0.78125 0.664062 15.457031 0.664062 33.558594 C 0.664062 51.660156 15.339844 66.335938 33.441406 66.335938 C 51.542969 66.335938 66.21875 51.660156 66.21875 33.558594 C 66.21875 15.457031 51.542969 0.78125 33.441406 0.78125 Z M 33.441406 0.78125 " clip-rule="nonzero"/></clipPath><clipPath id="0a2308734a"><path d="M 0.664062 0.78125 L 66.21875 0.78125 L 66.21875 66.335938 L 0.664062 66.335938 Z M 0.664062 0.78125 " clip-rule="nonzero"/></clipPath><clipPath id="3a8fca7887"><path d="M 33.441406 0.78125 C 15.339844 0.78125 0.664062 15.457031 0.664062 33.558594 C 0.664062 51.660156 15.339844 66.335938 33.441406 66.335938 C 51.542969 66.335938 66.21875 51.660156 66.21875 33.558594 C 66.21875 15.457031 51.542969 0.78125 33.441406 0.78125 Z M 33.441406 0.78125 " clip-rule="nonzero"/></clipPath><clipPath id="6d151fa630"><rect x="0" width="67" y="0" height="67"/></clipPath><clipPath id="b6862246dd"><path d="M 3.070312 3.1875 L 63.8125 3.1875 L 63.8125 63.929688 L 3.070312 63.929688 Z M 3.070312 3.1875 " clip-rule="nonzero"/></clipPath><clipPath id="c38951d9fe"><path d="M 33.441406 3.1875 C 16.667969 3.1875 3.070312 16.785156 3.070312 33.558594 C 3.070312 50.332031 16.667969 63.929688 33.441406 63.929688 C 50.214844 63.929688 63.8125 50.332031 63.8125 33.558594 C 63.8125 16.785156 50.214844 3.1875 33.441406 3.1875 Z M 33.441406 3.1875 " clip-rule="nonzero"/></clipPath><clipPath id="11c2a31d1f"><path d="M 0.0703125 0.1875 L 60.8125 0.1875 L 60.8125 60.929688 L 0.0703125 60.929688 Z M 0.0703125 0.1875 " clip-rule="nonzero"/></clipPath><clipPath id="5a02a50379"><path d="M 30.441406 0.1875 C 13.667969 0.1875 0.0703125 13.785156 0.0703125 30.558594 C 0.0703125 47.332031 13.667969 60.929688 30.441406 60.929688 C 47.214844 60.929688 60.8125 47.332031 60.8125 30.558594 C 60.8125 13.785156 47.214844 0.1875 30.441406 0.1875 Z M 30.441406 0.1875 " clip-rule="nonzero"/></clipPath><clipPath id="c0278aa02b"><rect x="0" width="61" y="0" height="61"/></clipPath><clipPath id="5f79932296"><path d="M 15.550781 19.894531 L 51.738281 19.894531 L 51.738281 47 L 15.550781 47 Z M 15.550781 19.894531 " clip-rule="nonzero"/></clipPath><clipPath id="0bf6980810"><rect x="0" width="67" y="0" height="67"/></clipPath></defs><g clip-path="url(#cbf3160880)"><path fill="#053262" d="M 154.230469 269.003906 L 23.871094 269.003906 C 20.703125 269.003906 17.632812 267.6875 15.460938 265.386719 C 13.285156 263.085938 12.136719 259.949219 12.3125 256.785156 L 19.175781 133.261719 C 19.515625 127.125 24.585938 122.324219 30.734375 122.324219 L 147.371094 122.324219 C 153.515625 122.324219 158.585938 127.125 158.925781 133.261719 L 165.789062 256.785156 C 165.96875 259.949219 164.816406 263.085938 162.640625 265.386719 C 160.460938 267.6875 157.398438 269.003906 154.230469 269.003906 Z M 30.734375 130.042969 C 28.6875 130.042969 26.988281 131.648438 26.878906 133.6875 L 20.015625 257.210938 C 19.964844 258.28125 20.335938 259.300781 21.066406 260.082031 C 21.808594 260.851562 22.796875 261.285156 23.871094 261.285156 L 154.230469 261.285156 C 155.304688 261.285156 156.300781 260.851562 157.035156 260.082031 C 157.769531 259.300781 158.144531 258.28125 158.085938 257.210938 L 151.222656 133.6875 C 151.113281 131.648438 149.414062 130.042969 147.371094 130.042969 Z M 30.734375 130.042969 " fill-opacity="1" fill-rule="nonzero"/></g><g clip-path="url(#f446bb1cf6)"><path fill="#053262" d="M 123.792969 153.390625 C 121.660156 153.390625 119.933594 151.660156 119.933594 149.527344 L 119.933594 123.03125 C 119.933594 106.003906 106.082031 92.152344 89.050781 92.152344 C 72.019531 92.152344 58.171875 106.003906 58.171875 123.03125 L 58.171875 149.527344 C 58.171875 151.660156 56.441406 153.390625 54.308594 153.390625 C 52.179688 153.390625 50.449219 151.660156 50.449219 149.527344 L 50.449219 123.03125 C 50.449219 101.75 67.765625 84.433594 89.050781 84.433594 C 110.335938 84.433594 127.652344 101.75 127.652344 123.03125 L 127.652344 149.527344 C 127.652344 151.660156 125.921875 153.390625 123.792969 153.390625 Z M 123.792969 153.390625 " fill-opacity="1" fill-rule="nonzero"/></g><g clip-path="url(#5cd1e407a3)"><g clip-path="url(#89de4d360e)"><g transform="matrix(1, 0, 0, 1, 88, 167)"><g clip-path="url(#bd9f607e78)"><g clip-path="url(#088f71ee2b)"><g clip-path="url(#60946dc3cd)"><path fill="#ffffff" d="M 0.667969 14.75 L 83.160156 0.472656 L 101.953125 109.070312 L 19.460938 123.347656 Z M 0.667969 14.75 " fill-opacity="1" fill-rule="nonzero"/></g></g></g></g></g></g><g clip-path="url(#a1e7122dd5)"><g clip-path="url(#3a672c3edb)"><g clip-path="url(#96848a2342)"><g transform="matrix(1, 0, 0, 1, 76, 183)"><g clip-path="url(#f2c674a4e3)"><g clip-path="url(#cf53fb524d)"><g clip-path="url(#79b5a4dd19)"><g clip-path="url(#bbd1c19afd)"><path fill="#ffffff" d="M -4.5 33.335938 L 86.8125 -3.769531 L 114.027344 63.210938 L 22.714844 100.316406 Z M -4.5 33.335938 " fill-opacity="1" fill-rule="nonzero"/></g></g></g></g></g></g></g></g><g clip-path="url(#25329111c4)"><g clip-path="url(#96f81717c9)"><g transform="matrix(1, 0, 0, 1, 176, 150)"><g clip-path="url(#7e7db0c3f5)"><g clip-path="url(#1d0f41097f)"><g clip-path="url(#9f78166a52)"><path fill="#ffffff" d="M 0.511719 0.910156 L 52.207031 0.910156 L 52.207031 52.601562 L 0.511719 52.601562 Z M 0.511719 0.910156 " fill-opacity="1" fill-rule="nonzero"/></g></g></g></g></g></g><g clip-path="url(#99e907485f)"><path fill="#ffffff" d="M 212.675781 167.699219 C 212.304688 167.710938 211.988281 167.851562 211.730469 168.117188 L 197.527344 182.316406 L 192.984375 177.773438 C 192.855469 177.640625 192.707031 177.539062 192.535156 177.464844 C 192.367188 177.390625 192.1875 177.351562 192.003906 177.351562 C 191.816406 177.347656 191.640625 177.382812 191.46875 177.453125 C 191.296875 177.523438 191.144531 177.625 191.011719 177.753906 C 190.882812 177.886719 190.78125 178.039062 190.710938 178.210938 C 190.640625 178.378906 190.609375 178.558594 190.609375 178.746094 C 190.613281 178.929688 190.648438 179.109375 190.722656 179.277344 C 190.796875 179.449219 190.898438 179.597656 191.035156 179.726562 L 196.550781 185.246094 C 196.683594 185.375 196.832031 185.472656 197 185.542969 C 197.167969 185.613281 197.34375 185.648438 197.527344 185.648438 C 197.710938 185.648438 197.886719 185.613281 198.054688 185.542969 C 198.226562 185.472656 198.375 185.375 198.503906 185.246094 L 213.679688 170.066406 C 213.882812 169.871094 214.015625 169.632812 214.070312 169.351562 C 214.125 169.074219 214.101562 168.804688 213.988281 168.539062 C 213.878906 168.277344 213.703125 168.070312 213.464844 167.917969 C 213.222656 167.765625 212.960938 167.691406 212.675781 167.699219 Z M 212.675781 167.699219 " fill-opacity="1" fill-rule="nonzero"/></g><g clip-path="url(#26c5e32a83)"><g clip-path="url(#f0c858cd1b)"><g transform="matrix(1, 0, 0, 1, 54, 153)"><g clip-path="url(#6de270c614)"><g clip-path="url(#a2b281c43a)"><g clip-path="url(#c8332c3470)"><path fill="#053262" d="M 0.585938 0.273438 L 309.101562 0.273438 L 309.101562 101.921875 L 0.585938 101.921875 Z M 0.585938 0.273438 " fill-opacity="1" fill-rule="nonzero"/></g></g></g></g></g></g><g clip-path="url(#2ef0251156)"><path fill="#ffffff" d="M 138.847656 153.378906 L 136.332031 131.15625 C 135.882812 127.261719 132.574219 124.300781 128.648438 124.300781 L 116.140625 124.300781 L 116.140625 117.960938 C 116.140625 103.074219 104.046875 90.980469 89.160156 90.980469 C 74.277344 90.980469 62.183594 103.074219 62.183594 117.960938 L 62.183594 124.300781 L 49.675781 124.300781 C 45.746094 124.300781 42.441406 127.261719 41.992188 131.15625 L 30.691406 230.355469 C 30.140625 235.109375 33.859375 239.246094 38.648438 239.246094 L 42.851562 239.246094 C 60.21875 164.714844 115.863281 154.378906 138.847656 153.378906 Z M 112.695312 132.398438 C 114.589844 132.398438 116.140625 133.949219 116.140625 135.84375 C 116.140625 137.738281 114.589844 139.289062 112.695312 139.289062 C 110.800781 139.289062 109.25 137.738281 109.25 135.84375 C 109.25 133.949219 110.800781 132.398438 112.695312 132.398438 Z M 69.074219 117.996094 C 69.074219 106.933594 78.066406 97.90625 89.160156 97.90625 C 100.257812 97.90625 109.25 106.933594 109.25 117.996094 L 109.25 124.335938 L 69.074219 124.335938 Z M 65.628906 132.398438 C 67.523438 132.398438 69.074219 133.949219 69.074219 135.84375 C 69.074219 137.738281 67.523438 139.289062 65.628906 139.289062 C 63.734375 139.289062 62.183594 137.738281 62.183594 135.84375 C 62.183594 133.949219 63.734375 132.398438 65.628906 132.398438 Z M 65.628906 132.398438 " fill-opacity="1" fill-rule="nonzero"/></g><g transform="matrix(1, 0, 0, 1, 112, 189)"><g clip-path="url(#7a62c0478c)"><g fill="#5ce1e6" fill-opacity="1"><g transform="translate(0.13468, 55.148515)"><g><path d="M 15.515625 0.671875 C 11.453125 0.671875 8.109375 -0.367188 5.484375 -2.453125 C 2.867188 -4.535156 1.5625 -7.691406 1.5625 -11.921875 L 10.5625 -11.921875 C 10.5625 -10.148438 11.046875 -8.828125 12.015625 -7.953125 C 12.992188 -7.085938 14.265625 -6.65625 15.828125 -6.65625 C 17.421875 -6.65625 18.625 -6.984375 19.4375 -7.640625 C 20.257812 -8.304688 20.671875 -9.195312 20.671875 -10.3125 C 20.671875 -11.3125 20.21875 -12.132812 19.3125 -12.78125 C 18.414062 -13.425781 16.976562 -14.179688 15 -15.046875 C 13.019531 -15.878906 11.378906 -16.691406 10.078125 -17.484375 C 8.773438 -18.285156 7.660156 -19.351562 6.734375 -20.6875 C 5.816406 -22.03125 5.359375 -23.707031 5.359375 -25.71875 C 5.359375 -27.695312 5.859375 -29.550781 6.859375 -31.28125 C 7.867188 -33.019531 9.40625 -34.425781 11.46875 -35.5 C 13.539062 -36.582031 16.101562 -37.125 19.15625 -37.125 C 23.113281 -37.125 26.242188 -36.082031 28.546875 -34 C 30.859375 -31.914062 32.015625 -29 32.015625 -25.25 L 23.171875 -25.25 C 23.171875 -26.675781 22.78125 -27.785156 22 -28.578125 C 21.21875 -29.378906 20.148438 -29.78125 18.796875 -29.78125 C 17.367188 -29.78125 16.28125 -29.445312 15.53125 -28.78125 C 14.789062 -28.125 14.421875 -27.296875 14.421875 -26.296875 C 14.421875 -25.253906 14.878906 -24.398438 15.796875 -23.734375 C 16.722656 -23.078125 18.191406 -22.316406 20.203125 -21.453125 C 22.179688 -20.578125 23.800781 -19.765625 25.0625 -19.015625 C 26.332031 -18.273438 27.425781 -17.242188 28.34375 -15.921875 C 29.269531 -14.609375 29.734375 -12.960938 29.734375 -10.984375 C 29.734375 -8.972656 29.226562 -7.082031 28.21875 -5.3125 C 27.207031 -3.539062 25.632812 -2.097656 23.5 -0.984375 C 21.363281 0.117188 18.703125 0.671875 15.515625 0.671875 Z M 15.515625 0.671875 "/></g></g></g><g fill="#5ce1e6" fill-opacity="1"><g transform="translate(30.894714, 55.148515)"><g><path d="M 28.21875 -22.703125 L 30.875 -36.4375 L 39.984375 -36.4375 L 33 0 L 23.890625 0 L 26.65625 -14.46875 L 13.53125 -14.46875 L 10.78125 0 L 1.671875 0 L 8.640625 -36.4375 L 17.75 -36.4375 L 15.09375 -22.703125 Z M 28.21875 -22.703125 "/></g></g></g><g fill="#5ce1e6" fill-opacity="1"><g transform="translate(69.097673, 55.148515)"><g><path d="M 21.03125 0.671875 C 17.664062 0.671875 14.601562 -0.0351562 11.84375 -1.453125 C 9.082031 -2.878906 6.90625 -4.894531 5.3125 -7.5 C 3.71875 -10.101562 2.921875 -13.085938 2.921875 -16.453125 C 2.921875 -20.054688 3.835938 -23.445312 5.671875 -26.625 C 7.515625 -29.800781 10.050781 -32.34375 13.28125 -34.25 C 16.507812 -36.164062 20.132812 -37.125 24.15625 -37.125 C 27.5625 -37.125 30.640625 -36.410156 33.390625 -34.984375 C 36.148438 -33.554688 38.328125 -31.539062 39.921875 -28.9375 C 41.523438 -26.34375 42.328125 -23.359375 42.328125 -19.984375 C 42.328125 -16.378906 41.40625 -12.988281 39.5625 -9.8125 C 37.726562 -6.632812 35.1875 -4.09375 31.9375 -2.1875 C 28.695312 -0.28125 25.0625 0.671875 21.03125 0.671875 Z M 21.5 -7.65625 C 23.71875 -7.65625 25.703125 -8.207031 27.453125 -9.3125 C 29.210938 -10.425781 30.578125 -11.898438 31.546875 -13.734375 C 32.515625 -15.578125 33 -17.507812 33 -19.53125 C 33 -21.257812 32.632812 -22.828125 31.90625 -24.234375 C 31.1875 -25.640625 30.125 -26.75 28.71875 -27.5625 C 27.3125 -28.382812 25.648438 -28.796875 23.734375 -28.796875 C 21.515625 -28.796875 19.53125 -28.238281 17.78125 -27.125 C 16.03125 -26.007812 14.664062 -24.539062 13.6875 -22.71875 C 12.71875 -20.894531 12.234375 -18.960938 12.234375 -16.921875 C 12.234375 -15.179688 12.597656 -13.609375 13.328125 -12.203125 C 14.054688 -10.796875 15.125 -9.6875 16.53125 -8.875 C 17.9375 -8.0625 19.59375 -7.65625 21.5 -7.65625 Z M 21.5 -7.65625 "/></g></g></g><g fill="#5ce1e6" fill-opacity="1"><g transform="translate(110.891969, 55.148515)"><g><path d="M 21.03125 -36.4375 C 23.5625 -36.4375 25.816406 -35.976562 27.796875 -35.0625 C 29.773438 -34.144531 31.328125 -32.84375 32.453125 -31.15625 C 33.585938 -29.476562 34.15625 -27.507812 34.15625 -25.25 C 34.15625 -22.957031 33.570312 -20.804688 32.40625 -18.796875 C 31.25 -16.785156 29.515625 -15.15625 27.203125 -13.90625 C 24.890625 -12.65625 22.101562 -12.03125 18.84375 -12.03125 L 13.125 -12.03125 L 10.828125 0 L 1.671875 0 L 8.640625 -36.4375 Z M 19 -19.78125 C 20.90625 -19.78125 22.351562 -20.25 23.34375 -21.1875 C 24.332031 -22.125 24.828125 -23.285156 24.828125 -24.671875 C 24.828125 -25.921875 24.375 -26.898438 23.46875 -27.609375 C 22.570312 -28.328125 21.394531 -28.6875 19.9375 -28.6875 L 16.34375 -28.6875 L 14.625 -19.78125 Z M 19 -19.78125 "/></g></g></g><g fill="#5ce1e6" fill-opacity="1"><g transform="translate(143.109364, 55.148515)"><g/></g></g><g fill="#5ce1e6" fill-opacity="1"><g transform="translate(157.370064, 55.148515)"><g><path d="M 15.515625 0.671875 C 11.453125 0.671875 8.109375 -0.367188 5.484375 -2.453125 C 2.867188 -4.535156 1.5625 -7.691406 1.5625 -11.921875 L 10.5625 -11.921875 C 10.5625 -10.148438 11.046875 -8.828125 12.015625 -7.953125 C 12.992188 -7.085938 14.265625 -6.65625 15.828125 -6.65625 C 17.421875 -6.65625 18.625 -6.984375 19.4375 -7.640625 C 20.257812 -8.304688 20.671875 -9.195312 20.671875 -10.3125 C 20.671875 -11.3125 20.21875 -12.132812 19.3125 -12.78125 C 18.414062 -13.425781 16.976562 -14.179688 15 -15.046875 C 13.019531 -15.878906 11.378906 -16.691406 10.078125 -17.484375 C 8.773438 -18.285156 7.660156 -19.351562 6.734375 -20.6875 C 5.816406 -22.03125 5.359375 -23.707031 5.359375 -25.71875 C 5.359375 -27.695312 5.859375 -29.550781 6.859375 -31.28125 C 7.867188 -33.019531 9.40625 -34.425781 11.46875 -35.5 C 13.539062 -36.582031 16.101562 -37.125 19.15625 -37.125 C 23.113281 -37.125 26.242188 -36.082031 28.546875 -34 C 30.859375 -31.914062 32.015625 -29 32.015625 -25.25 L 23.171875 -25.25 C 23.171875 -26.675781 22.78125 -27.785156 22 -28.578125 C 21.21875 -29.378906 20.148438 -29.78125 18.796875 -29.78125 C 17.367188 -29.78125 16.28125 -29.445312 15.53125 -28.78125 C 14.789062 -28.125 14.421875 -27.296875 14.421875 -26.296875 C 14.421875 -25.253906 14.878906 -24.398438 15.796875 -23.734375 C 16.722656 -23.078125 18.191406 -22.316406 20.203125 -21.453125 C 22.179688 -20.578125 23.800781 -19.765625 25.0625 -19.015625 C 26.332031 -18.273438 27.425781 -17.242188 28.34375 -15.921875 C 29.269531 -14.609375 29.734375 -12.960938 29.734375 -10.984375 C 29.734375 -8.972656 29.226562 -7.082031 28.21875 -5.3125 C 27.207031 -3.539062 25.632812 -2.097656 23.5 -0.984375 C 21.363281 0.117188 18.703125 0.671875 15.515625 0.671875 Z M 15.515625 0.671875 "/></g></g></g><g fill="#5ce1e6" fill-opacity="1"><g transform="translate(188.130099, 55.148515)"><g><path d="M 17.703125 -12.1875 L 30.515625 -36.4375 L 40.5625 -36.4375 L 20.046875 0 L 11.5625 0 L 5 -36.4375 L 14.21875 -36.4375 Z M 17.703125 -12.1875 "/></g></g></g></g></g><g transform="matrix(1, 0, 0, 1, 127, 147)"><g clip-path="url(#1efbe32fab)"><g fill="#ffffff" fill-opacity="1"><g transform="translate(0.6669, 52.027776)"><g><path d="M 30.171875 -34.125 L 28.8125 -26.859375 L 15.265625 -26.859375 L 14.140625 -20.96875 L 27.15625 -20.96875 L 25.84375 -13.890625 L 12.765625 -13.890625 L 11.5 -7.265625 L 25.546875 -7.265625 L 24.125 0 L 1.5625 0 L 8.09375 -34.125 Z M 30.171875 -34.125 "/></g></g></g><g fill="#ffffff" fill-opacity="1"><g transform="translate(28.305438, 52.027776)"><g><path d="M 22.8125 0 L 1.5625 0 L 8.09375 -34.125 L 16.625 -34.125 L 11.609375 -7.703125 L 24.328125 -7.703125 Z M 22.8125 0 "/></g></g></g><g fill="#ffffff" fill-opacity="1"><g transform="translate(53.019196, 52.027776)"><g><path d="M 30.171875 -34.125 L 28.8125 -26.859375 L 15.265625 -26.859375 L 14.140625 -20.96875 L 27.15625 -20.96875 L 25.84375 -13.890625 L 12.765625 -13.890625 L 11.5 -7.265625 L 25.546875 -7.265625 L 24.125 0 L 1.5625 0 L 8.09375 -34.125 Z M 30.171875 -34.125 "/></g></g></g><g fill="#ffffff" fill-opacity="1"><g transform="translate(80.657734, 52.027776)"><g><path d="M 19.40625 0.640625 C 16.34375 0.640625 13.535156 -0.03125 10.984375 -1.375 C 8.441406 -2.726562 6.421875 -4.625 4.921875 -7.0625 C 3.429688 -9.5 2.6875 -12.25 2.6875 -15.3125 C 2.6875 -18.71875 3.546875 -21.914062 5.265625 -24.90625 C 6.984375 -27.894531 9.363281 -30.285156 12.40625 -32.078125 C 15.445312 -33.867188 18.882812 -34.765625 22.71875 -34.765625 C 25.644531 -34.765625 28.269531 -34.203125 30.59375 -33.078125 C 32.914062 -31.953125 34.804688 -30.378906 36.265625 -28.359375 C 37.734375 -26.347656 38.675781 -24.015625 39.09375 -21.359375 L 30.328125 -21.359375 C 29.734375 -23.171875 28.726562 -24.554688 27.3125 -25.515625 C 25.90625 -26.472656 24.210938 -26.953125 22.234375 -26.953125 C 20.179688 -26.953125 18.328125 -26.429688 16.671875 -25.390625 C 15.015625 -24.359375 13.722656 -22.988281 12.796875 -21.28125 C 11.867188 -19.570312 11.40625 -17.757812 11.40625 -15.84375 C 11.40625 -14.21875 11.742188 -12.742188 12.421875 -11.421875 C 13.109375 -10.109375 14.117188 -9.070312 15.453125 -8.3125 C 16.785156 -7.550781 18.363281 -7.171875 20.1875 -7.171875 C 22.332031 -7.171875 24.175781 -7.679688 25.71875 -8.703125 C 27.257812 -9.722656 28.5 -11.097656 29.4375 -12.828125 L 38.3125 -12.828125 C 36.820312 -8.691406 34.398438 -5.410156 31.046875 -2.984375 C 27.703125 -0.566406 23.820312 0.640625 19.40625 0.640625 Z M 19.40625 0.640625 "/></g></g></g><g fill="#ffffff" fill-opacity="1"><g transform="translate(118.971672, 52.027776)"><g><path d="M 15.5 0 L 6.96875 0 L 12.046875 -26.421875 L 3.703125 -26.421875 L 5.171875 -34.125 L 30.375 -34.125 L 28.90625 -26.421875 L 20.578125 -26.421875 Z M 15.5 0 "/></g></g></g><g fill="#ffffff" fill-opacity="1"><g transform="translate(144.709106, 52.027776)"><g><path d="M 32.03125 -23.640625 C 32.03125 -21.429688 31.332031 -19.300781 29.9375 -17.25 C 28.539062 -15.207031 26.394531 -13.679688 23.5 -12.671875 L 31.296875 0 L 21.546875 0 L 14.4375 -11.609375 L 12.375 -11.609375 L 10.140625 0 L 1.5625 0 L 8.09375 -34.125 L 19.796875 -34.125 C 22.203125 -34.125 24.328125 -33.691406 26.171875 -32.828125 C 28.023438 -31.972656 29.460938 -30.753906 30.484375 -29.171875 C 31.515625 -27.597656 32.03125 -25.753906 32.03125 -23.640625 Z M 15.3125 -26.953125 L 13.703125 -18.625 L 17.796875 -18.625 C 19.546875 -18.625 20.890625 -19.050781 21.828125 -19.90625 C 22.773438 -20.769531 23.25 -21.851562 23.25 -23.15625 C 23.25 -24.289062 22.832031 -25.207031 22 -25.90625 C 21.175781 -26.601562 20.082031 -26.953125 18.71875 -26.953125 Z M 15.3125 -26.953125 "/></g></g></g><g fill="#ffffff" fill-opacity="1"><g transform="translate(176.442318, 52.027776)"><g><path d="M 19.6875 0.640625 C 16.539062 0.640625 13.675781 -0.0234375 11.09375 -1.359375 C 8.507812 -2.691406 6.46875 -4.578125 4.96875 -7.015625 C 3.476562 -9.453125 2.734375 -12.25 2.734375 -15.40625 C 2.734375 -18.78125 3.59375 -21.953125 5.3125 -24.921875 C 7.03125 -27.898438 9.398438 -30.285156 12.421875 -32.078125 C 15.453125 -33.867188 18.851562 -34.765625 22.625 -34.765625 C 25.800781 -34.765625 28.679688 -34.097656 31.265625 -32.765625 C 33.859375 -31.429688 35.898438 -29.546875 37.390625 -27.109375 C 38.890625 -24.671875 39.640625 -21.875 39.640625 -18.71875 C 39.640625 -15.34375 38.773438 -12.164062 37.046875 -9.1875 C 35.328125 -6.21875 32.945312 -3.835938 29.90625 -2.046875 C 26.863281 -0.253906 23.457031 0.640625 19.6875 0.640625 Z M 20.140625 -7.171875 C 22.210938 -7.171875 24.066406 -7.6875 25.703125 -8.71875 C 27.347656 -9.757812 28.625 -11.140625 29.53125 -12.859375 C 30.445312 -14.585938 30.90625 -16.394531 30.90625 -18.28125 C 30.90625 -19.90625 30.5625 -21.375 29.875 -22.6875 C 29.195312 -24.007812 28.195312 -25.050781 26.875 -25.8125 C 25.5625 -26.570312 24.015625 -26.953125 22.234375 -26.953125 C 20.148438 -26.953125 18.285156 -26.429688 16.640625 -25.390625 C 15.003906 -24.359375 13.726562 -22.988281 12.8125 -21.28125 C 11.90625 -19.570312 11.453125 -17.757812 11.453125 -15.84375 C 11.453125 -14.21875 11.789062 -12.742188 12.46875 -11.421875 C 13.15625 -10.109375 14.15625 -9.070312 15.46875 -8.3125 C 16.789062 -7.550781 18.347656 -7.171875 20.140625 -7.171875 Z M 20.140625 -7.171875 "/></g></g></g></g></g><g transform="matrix(1, 0, 0, 1, 33, 191)"><g clip-path="url(#0bf6980810)"><g clip-path="url(#e938b22ec0)"><g clip-path="url(#3f6f40cdf4)"><g><g clip-path="url(#6d151fa630)"><g clip-path="url(#0a2308734a)"><g clip-path="url(#3a8fca7887)"><path fill="#ffffff" d="M 0.664062 0.78125 L 66.21875 0.78125 L 66.21875 66.335938 L 0.664062 66.335938 Z M 0.664062 0.78125 " fill-opacity="1" fill-rule="nonzero"/></g></g></g></g></g></g><g clip-path="url(#b6862246dd)"><g clip-path="url(#c38951d9fe)"><g transform="matrix(1, 0, 0, 1, 3, 3)"><g clip-path="url(#c0278aa02b)"><g clip-path="url(#11c2a31d1f)"><g clip-path="url(#5a02a50379)"><path fill="#00bf63" d="M 0.0703125 0.1875 L 60.8125 0.1875 L 60.8125 60.929688 L 0.0703125 60.929688 Z M 0.0703125 0.1875 " fill-opacity="1" fill-rule="nonzero"/></g></g></g></g></g></g><g clip-path="url(#5f79932296)"><path fill="#ffffff" d="M 49 19.910156 C 48.441406 19.925781 47.960938 20.136719 47.570312 20.539062 L 26.160156 41.949219 L 19.308594 35.097656 C 19.117188 34.898438 18.890625 34.742188 18.636719 34.628906 C 18.378906 34.519531 18.109375 34.460938 17.832031 34.460938 C 17.550781 34.457031 17.28125 34.507812 17.023438 34.613281 C 16.765625 34.71875 16.535156 34.871094 16.339844 35.070312 C 16.140625 35.265625 15.988281 35.496094 15.882812 35.753906 C 15.777344 36.011719 15.726562 36.28125 15.730469 36.5625 C 15.730469 36.839844 15.789062 37.109375 15.898438 37.367188 C 16.011719 37.621094 16.167969 37.847656 16.367188 38.039062 L 24.6875 46.363281 C 24.882812 46.554688 25.109375 46.707031 25.363281 46.8125 C 25.617188 46.917969 25.882812 46.96875 26.160156 46.96875 C 26.4375 46.96875 26.703125 46.917969 26.957031 46.8125 C 27.210938 46.707031 27.4375 46.554688 27.632812 46.363281 L 50.511719 23.480469 C 50.820312 23.179688 51.015625 22.820312 51.101562 22.402344 C 51.1875 21.980469 51.144531 21.570312 50.976562 21.175781 C 50.8125 20.78125 50.546875 20.46875 50.1875 20.238281 C 49.824219 20.003906 49.429688 19.894531 49 19.910156 Z M 49 19.910156 " fill-opacity="1" fill-rule="nonzero"/></g></g></g></svg>